<?xml version="1.0" encoding="utf-8" standalone="no"?>
<!DOCTYPE svg PUBLIC "-//W3C//DTD SVG 1.1//EN"
  "http://www.w3.org/Graphics/SVG/1.1/DTD/svg11.dtd">
<svg xmlns:xlink="http://www.w3.org/1999/xlink" width="936.000091pt" height="96.48pt" viewBox="0 0 936.000091 96.48" xmlns="http://www.w3.org/2000/svg" version="1.1">
 <metadata>
  <rdf:RDF xmlns:dc="http://purl.org/dc/elements/1.1/" xmlns:cc="http://creativecommons.org/ns#" xmlns:rdf="http://www.w3.org/1999/02/22-rdf-syntax-ns#">
   <cc:Work>
    <dc:type rdf:resource="http://purl.org/dc/dcmitype/StillImage"/>
    <dc:date>2023-11-27T06:29:49.674238</dc:date>
    <dc:format>image/svg+xml</dc:format>
    <dc:creator>
     <cc:Agent>
      <dc:title>Matplotlib v3.7.1, https://matplotlib.org/</dc:title>
     </cc:Agent>
    </dc:creator>
   </cc:Work>
  </rdf:RDF>
 </metadata>
 <defs>
  <style type="text/css">*{stroke-linejoin: round; stroke-linecap: butt}</style>
 </defs>
 <g id="figure_1">
  <g id="patch_1">
   <path d="M 0 96.48 
L 936.000091 96.48 
L 936.000091 0 
L 0 0 
z
" style="fill: #ffffff"/>
  </g>
  <g id="axes_1">
   <g id="patch_2">
    <path d="M 52.46711 57.391562 
L 240.09016 57.391562 
L 240.09016 22.318125 
L 52.46711 22.318125 
z
" style="fill: #eaeaf2"/>
   </g>
   <g id="matplotlib.axis_1">
    <g id="xtick_1">
     <g id="line2d_1">
      <path d="M 52.46711 57.391562 
L 52.46711 22.318125 
" clip-path="url(#p17c631903c)" style="fill: none; stroke: #ffffff; stroke-linecap: round"/>
     </g>
     <g id="text_1">
      <text style="fill: #262626; font: 11px 'Arial', 'DejaVu Sans', 'Liberation Sans', 'Bitstream Vera Sans', sans-serif; text-anchor: middle" x="52.46711" y="75.249844" transform="rotate(-0 52.46711 75.249844)">0</text>
     </g>
    </g>
    <g id="text_2">
     <text style="fill: #262626; font: 8px 'Arial', 'DejaVu Sans', 'Liberation Sans', 'Bitstream Vera Sans', sans-serif; text-anchor: middle" x="146.278635" y="87.61625" transform="rotate(-0 146.278635 87.61625)">CPU Time (CPU Hour)</text>
    </g>
   </g>
   <g id="matplotlib.axis_2">
    <g id="ytick_1">
     <g id="line2d_2">
      <path d="M 52.46711 44.499541 
L 240.09016 44.499541 
" clip-path="url(#p17c631903c)" style="fill: none; stroke: #ffffff; stroke-linecap: round"/>
     </g>
     <g id="text_3">
      <text style="fill: #262626; font: 11px 'Arial', 'DejaVu Sans', 'Liberation Sans', 'Bitstream Vera Sans', sans-serif; text-anchor: end" x="42.96711" y="48.678682" transform="rotate(-0 42.96711 48.678682)">5.0</text>
     </g>
    </g>
    <g id="ytick_2">
     <g id="line2d_3">
      <path d="M 52.46711 23.460358 
L 240.09016 23.460358 
" clip-path="url(#p17c631903c)" style="fill: none; stroke: #ffffff; stroke-linecap: round"/>
     </g>
     <g id="text_4">
      <text style="fill: #262626; font: 11px 'Arial', 'DejaVu Sans', 'Liberation Sans', 'Bitstream Vera Sans', sans-serif; text-anchor: end" x="42.96711" y="27.639499" transform="rotate(-0 42.96711 27.639499)">7.5</text>
     </g>
    </g>
    <g id="text_5">
     <text style="fill: #262626; font: 8px 'Arial', 'DejaVu Sans', 'Liberation Sans', 'Bitstream Vera Sans', sans-serif; text-anchor: middle" x="13.27875" y="39.854844" transform="rotate(-90 13.27875 39.854844)">Bitmap Density (\%)</text>
    </g>
   </g>
   <g id="PolyCollection_1">
    <defs>
     <path id="m0c780929e1" d="M 75.919991 -57.838659 
L 75.919991 -40.682685 
L 99.372872 -41.196337 
L 122.825754 -41.620099 
L 146.278635 -45.267028 
L 169.731516 -45.318393 
L 193.184397 -48.169161 
L 216.637279 -50.313658 
L 240.09016 -50.583325 
L 263.543041 -56.156449 
L 286.995923 -59.585075 
L 286.995923 -72.002611 
L 286.995923 -72.002611 
L 263.543041 -71.476118 
L 240.09016 -71.411911 
L 216.637279 -69.71686 
L 193.184397 -66.224027 
L 169.731516 -66.224027 
L 146.278635 -66.108455 
L 122.825754 -64.554658 
L 99.372872 -63.424624 
L 75.919991 -57.838659 
z
" style="stroke: #00a76c; stroke-opacity: 0.2"/>
    </defs>
    <g clip-path="url(#p17c631903c)">
     <use xlink:href="#m0c780929e1" x="0" y="96.48" style="fill: #00a76c; fill-opacity: 0.2; stroke: #00a76c; stroke-opacity: 0.2"/>
    </g>
   </g>
   <g id="line2d_4">
    <path d="M 75.919991 47.219328 
L 99.372872 44.16952 
L 122.825754 43.392621 
L 146.278635 40.792259 
L 169.731516 40.70879 
L 193.184397 39.283406 
L 216.637279 36.464741 
L 240.09016 35.482382 
L 263.543041 32.663717 
L 286.995923 30.686157 
L 310.448804 23.912372 
" clip-path="url(#p17c631903c)" style="fill: none; stroke: #00a76c; stroke-width: 3; stroke-linecap: round"/>
   </g>
   <g id="line2d_5"/>
   <g id="patch_3">
    <path d="M 52.46711 57.391562 
L 52.46711 22.318125 
" style="fill: none; stroke: #ffffff; stroke-width: 1.25; stroke-linejoin: miter; stroke-linecap: square"/>
   </g>
   <g id="patch_4">
    <path d="M 52.46711 57.391562 
L 240.09016 57.391562 
" style="fill: none; stroke: #ffffff; stroke-width: 1.25; stroke-linejoin: miter; stroke-linecap: square"/>
   </g>
   <g id="text_6">
    <text style="fill: #262626; font: 12px 'Arial', 'DejaVu Sans', 'Liberation Sans', 'Bitstream Vera Sans', sans-serif; text-anchor: middle" x="146.278635" y="16.318125" transform="rotate(-0 146.278635 16.318125)">tcpdump</text>
   </g>
  </g>
  <g id="legend_1">
   <g id="line2d_6">
    <path d="M 859.19931 64.702344 
L 870.19931 64.702344 
L 881.19931 64.702344 
" style="fill: none; stroke: #00a76c; stroke-width: 3; stroke-linecap: round"/>
   </g>
   <g id="text_7">
    <text style="fill: #262626; font: 11px 'Arial', 'DejaVu Sans', 'Liberation Sans', 'Bitstream Vera Sans', sans-serif; text-anchor: start" x="889.99931" y="68.552344" transform="rotate(-0 889.99931 68.552344)">autofz</text>
   </g>
  </g>
 </g>
 <defs>
  <clipPath id="p17c631903c">
   <rect x="52.46711" y="22.318125" width="187.62305" height="35.073437"/>
  </clipPath>
 </defs>
</svg>
