<?xml version="1.0" encoding="utf-8" standalone="no"?>
<!DOCTYPE svg PUBLIC "-//W3C//DTD SVG 1.1//EN"
  "http://www.w3.org/Graphics/SVG/1.1/DTD/svg11.dtd">
<svg xmlns:xlink="http://www.w3.org/1999/xlink" width="935.956273pt" height="96.48pt" viewBox="0 0 935.956273 96.48" xmlns="http://www.w3.org/2000/svg" version="1.1">
 <metadata>
  <rdf:RDF xmlns:dc="http://purl.org/dc/elements/1.1/" xmlns:cc="http://creativecommons.org/ns#" xmlns:rdf="http://www.w3.org/1999/02/22-rdf-syntax-ns#">
   <cc:Work>
    <dc:type rdf:resource="http://purl.org/dc/dcmitype/StillImage"/>
    <dc:date>2023-11-27T05:04:30.880639</dc:date>
    <dc:format>image/svg+xml</dc:format>
    <dc:creator>
     <cc:Agent>
      <dc:title>Matplotlib v3.7.1, https://matplotlib.org/</dc:title>
     </cc:Agent>
    </dc:creator>
   </cc:Work>
  </rdf:RDF>
 </metadata>
 <defs>
  <style type="text/css">*{stroke-linejoin: round; stroke-linecap: butt}</style>
 </defs>
 <g id="figure_1">
  <g id="patch_1">
   <path d="M 0 96.48 
L 935.956273 96.48 
L 935.956273 0 
L 0 0 
z
" style="fill: #ffffff"/>
  </g>
  <g id="axes_1">
   <g id="patch_2">
    <path d="M 51.465202 57.391562 
L 234.078712 57.391562 
L 234.078712 22.318125 
L 51.465202 22.318125 
z
" style="fill: #eaeaf2"/>
   </g>
   <g id="matplotlib.axis_1">
    <g id="xtick_1">
     <g id="line2d_1">
      <path d="M 51.465202 57.391562 
L 51.465202 22.318125 
" clip-path="url(#p7d0271c05c)" style="fill: none; stroke: #ffffff; stroke-linecap: round"/>
     </g>
     <g id="text_1">
      <text style="fill: #262626; font: 11px 'Arial', 'DejaVu Sans', 'Liberation Sans', 'Bitstream Vera Sans', sans-serif; text-anchor: middle" x="51.465202" y="75.249844" transform="rotate(-0 51.465202 75.249844)">0</text>
     </g>
    </g>
    <g id="xtick_2">
     <g id="line2d_2">
      <path d="M 142.771957 57.391562 
L 142.771957 22.318125 
" clip-path="url(#p7d0271c05c)" style="fill: none; stroke: #ffffff; stroke-linecap: round"/>
     </g>
     <g id="text_2">
      <text style="fill: #262626; font: 11px 'Arial', 'DejaVu Sans', 'Liberation Sans', 'Bitstream Vera Sans', sans-serif; text-anchor: middle" x="142.771957" y="75.249844" transform="rotate(-0 142.771957 75.249844)">6</text>
     </g>
    </g>
    <g id="xtick_3">
     <g id="line2d_3">
      <path d="M 234.078712 57.391562 
L 234.078712 22.318125 
" clip-path="url(#p7d0271c05c)" style="fill: none; stroke: #ffffff; stroke-linecap: round"/>
     </g>
     <g id="text_3">
      <text style="fill: #262626; font: 11px 'Arial', 'DejaVu Sans', 'Liberation Sans', 'Bitstream Vera Sans', sans-serif; text-anchor: middle" x="234.078712" y="75.249844" transform="rotate(-0 234.078712 75.249844)">12</text>
     </g>
    </g>
    <g id="text_4">
     <text style="fill: #262626; font: 8px 'Arial', 'DejaVu Sans', 'Liberation Sans', 'Bitstream Vera Sans', sans-serif; text-anchor: middle" x="142.771957" y="87.61625" transform="rotate(-0 142.771957 87.61625)">CPU Time (CPU Hour)</text>
    </g>
   </g>
   <g id="matplotlib.axis_2">
    <g id="ytick_1">
     <g id="line2d_4">
      <path d="M 51.465202 53.083552 
L 234.078712 53.083552 
" clip-path="url(#p7d0271c05c)" style="fill: none; stroke: #ffffff; stroke-linecap: round"/>
     </g>
     <g id="text_5">
      <text style="fill: #262626; font: 11px 'Arial', 'DejaVu Sans', 'Liberation Sans', 'Bitstream Vera Sans', sans-serif; text-anchor: end" x="41.965202" y="57.262693" transform="rotate(-0 41.965202 57.262693)">6</text>
     </g>
    </g>
    <g id="ytick_2">
     <g id="line2d_5">
      <path d="M 51.465202 35.223624 
L 234.078712 35.223624 
" clip-path="url(#p7d0271c05c)" style="fill: none; stroke: #ffffff; stroke-linecap: round"/>
     </g>
     <g id="text_6">
      <text style="fill: #262626; font: 11px 'Arial', 'DejaVu Sans', 'Liberation Sans', 'Bitstream Vera Sans', sans-serif; text-anchor: end" x="41.965202" y="39.402765" transform="rotate(-0 41.965202 39.402765)">8</text>
     </g>
    </g>
    <g id="text_7">
     <text style="fill: #262626; font: 8px 'Arial', 'DejaVu Sans', 'Liberation Sans', 'Bitstream Vera Sans', sans-serif; text-anchor: middle" x="13.27875" y="39.854844" transform="rotate(-90 13.27875 39.854844)">Bitmap Density (\%)</text>
    </g>
   </g>
   <g id="PolyCollection_1"/>
   <g id="line2d_6">
    <path d="M 55.26965 55.797315 
L 59.074098 49.869986 
L 62.878546 48.670894 
L 66.682995 47.022143 
L 70.487443 46.899509 
L 74.291891 46.899509 
L 78.096339 43.193225 
L 81.900787 41.394587 
L 85.705235 41.326457 
L 89.509683 40.767789 
L 93.314131 40.168243 
L 97.11858 38.573996 
L 100.923028 38.573996 
L 104.727476 38.573996 
L 108.531924 38.083458 
L 112.336372 37.45666 
L 116.14082 37.334026 
L 119.945268 37.116009 
L 123.749716 37.116009 
L 127.554165 37.116009 
L 131.358613 37.075131 
L 135.163061 36.21669 
L 138.967509 36.012299 
L 142.771957 33.968393 
L 146.576405 33.0827 
L 150.380853 30.221231 
L 154.185301 29.621685 
L 157.98975 26.160669 
L 161.794198 26.119791 
L 165.598646 26.119791 
L 169.403094 26.119791 
L 173.207542 26.119791 
L 177.01199 26.119791 
L 180.816438 26.119791 
L 184.620886 26.119791 
L 188.425335 26.119791 
L 192.229783 25.383985 
L 196.034231 25.111464 
L 199.838679 25.084212 
L 203.643127 24.375658 
L 207.447575 24.362032 
L 211.252023 24.362032 
L 215.056471 24.33478 
L 218.86092 24.321153 
L 222.665368 23.912372 
L 226.469816 23.912372 
L 230.274264 23.912372 
L 234.078712 23.912372 
L 237.88316 23.912372 
L 241.687608 23.912372 
L 245.492056 23.912372 
" clip-path="url(#p7d0271c05c)" style="fill: none; stroke: #00a76c; stroke-width: 3; stroke-linecap: round"/>
   </g>
   <g id="line2d_7"/>
   <g id="patch_3">
    <path d="M 51.465202 57.391562 
L 51.465202 22.318125 
" style="fill: none; stroke: #ffffff; stroke-width: 1.25; stroke-linejoin: miter; stroke-linecap: square"/>
   </g>
   <g id="patch_4">
    <path d="M 51.465202 57.391562 
L 234.078712 57.391562 
" style="fill: none; stroke: #ffffff; stroke-width: 1.25; stroke-linejoin: miter; stroke-linecap: square"/>
   </g>
   <g id="text_8">
    <text style="fill: #262626; font: 12px 'Arial', 'DejaVu Sans', 'Liberation Sans', 'Bitstream Vera Sans', sans-serif; text-anchor: middle" x="142.771957" y="16.318125" transform="rotate(-0 142.771957 16.318125)">tcpdump</text>
   </g>
  </g>
  <g id="legend_1">
   <g id="line2d_8">
    <path d="M 859.155492 64.702344 
L 870.155492 64.702344 
L 881.155492 64.702344 
" style="fill: none; stroke: #00a76c; stroke-width: 3; stroke-linecap: round"/>
   </g>
   <g id="text_9">
    <text style="fill: #262626; font: 11px 'Arial', 'DejaVu Sans', 'Liberation Sans', 'Bitstream Vera Sans', sans-serif; text-anchor: start" x="889.955492" y="68.552344" transform="rotate(-0 889.955492 68.552344)">autofz</text>
   </g>
  </g>
 </g>
 <defs>
  <clipPath id="p7d0271c05c">
   <rect x="51.465202" y="22.318125" width="182.61351" height="35.073437"/>
  </clipPath>
 </defs>
</svg>
